<?xml version="1.0" encoding="utf-8"?>
<!-- Generator: Adobe Illustrator 27.0.0, SVG Export Plug-In . SVG Version: 6.00 Build 0)  -->
<svg version="1.1" id="Layer_1" xmlns="http://www.w3.org/2000/svg" xmlns:xlink="http://www.w3.org/1999/xlink" x="0px" y="0px"
	 viewBox="0 0 135 42.3" style="enable-background:new 0 0 135 42.3;" xml:space="preserve">
<style type="text/css">
	.st0{fill:#00FF99;}
	.st1{fill:#FFFFFF;}
</style>
<g>
	<path class="st0" d="M39.3,21.2l3.3-8.3l-9.3-3.6L29.6,0l-8.3,3.3L12.9,0L9.3,9.2L0,12.9l3.3,8.3L0,29.5l9.3,3.6l3.6,9.2l8.3-3.3
		l8.3,3.3l3.6-9.2l9.3-3.6L39.3,21.2z M23.1,27.4l-1.8,4.5l-1.8-4.5l-7.3,2.9l2.9-7.3l-4.5-1.8l4.5-1.8l-2.9-7.3l7.3,2.9l1.8-4.5
		l1.8,4.5l7.3-2.9l-2.9,7.3l4.5,1.8L27.5,23l2.9,7.3L23.1,27.4z"/>
	<path class="st1" d="M119.6,6.6v5.9h6.1V6.6H119.6z M119.6,14.3v21.4h6.1V14.3H119.6z"/>
	<path class="st1" d="M128.9,6.6v5.9h6.1V6.6H128.9z M128.9,14.3v21.4h6.1V14.3H128.9z"/>
	<path class="st1" d="M66.4,19.5v-5.6h-5.9V6.5h-6.1V30c0,3.1,2.5,5.6,5.6,5.6h6.3V30h-5.9V19.5C60.4,19.5,66.4,19.5,66.4,19.5z"/>
	<path class="st1" d="M84.9,13.9v2.4c-1.8-1.6-4.1-2.5-6.6-2.5c-5.8,0-10.4,5-10.4,11.2s4.7,11.2,10.4,11.2c2.5,0,4.8-0.9,6.6-2.5
		v2.1H91V13.9H84.9z M84.9,30.1H74.3V19.5h10.6V30.1z"/>
	<path class="st1" d="M106.5,13.8c-2.5,0-4.8,0.9-6.6,2.5V6.6h-6.1v29.1h6.1v-2.1c1.8,1.6,4.1,2.5,6.6,2.5c5.8,0,10.4-5,10.4-11.2
		C116.9,18.8,112.2,13.8,106.5,13.8z M110.5,30.1H99.9V19.5h10.6V30.1z"/>
</g>
</svg>
